<?xml version="1.0" encoding="UTF-8"?>
<svg version="1.1" xmlns="http://www.w3.org/2000/svg" width="320" height="320">
<path d="M0 0 C1.41746282 -0.00435894 2.8349233 -0.00954597 4.25238037 -0.01548767 C8.06656477 -0.02876167 11.88064939 -0.02946944 15.69485235 -0.02692437 C18.89524557 -0.02584676 22.09561924 -0.03075803 25.29600823 -0.03552979 C32.85458057 -0.04658479 40.4131032 -0.04708501 47.97167969 -0.04101562 C55.73338302 -0.03497837 63.49490496 -0.04728975 71.25657737 -0.06858569 C77.95423427 -0.08627714 84.65183381 -0.09219125 91.34951317 -0.08894795 C95.3348848 -0.08714699 99.32012698 -0.0896512 103.30547714 -0.10366249 C107.05671996 -0.11636001 110.80768264 -0.11418593 114.55892181 -0.1012516 C116.5671514 -0.09780899 118.57539004 -0.10897505 120.58358765 -0.12081909 C132.98915954 -0.05009519 144.10817492 2.32464936 155.45751953 7.2746582 C156.44751953 7.6046582 157.43751953 7.9346582 158.45751953 8.2746582 C159.1241862 9.60799154 159.79085286 10.94132487 160.45751953 12.2746582 C163.7565078 15.83409291 167.09076646 19.09128167 171.45751953 21.2746582 C171.58126953 21.9346582 171.70501953 22.5946582 171.83251953 23.2746582 C172.55185093 26.72744893 173.88646998 29.54105437 175.42236328 32.70043945 C178.83106153 41.17716452 178.74928599 49.30181245 178.73217773 58.32861328 C178.73653052 59.8488744 178.74171555 61.36913333 178.74766541 62.88938904 C178.76100724 67.00111792 178.76163935 71.1127546 178.75910211 75.22450089 C178.7580289 78.66605254 178.76292479 82.10758579 178.76770753 85.54913348 C178.77878653 93.67420857 178.77924948 101.79923742 178.77319336 109.92431641 C178.76715728 118.28470217 178.77945896 126.64491947 178.80076343 135.0052765 C178.81842348 142.202164 178.82437377 149.39899809 178.82112569 156.59590644 C178.81931935 160.88584616 178.82188353 165.17566576 178.83584023 169.46558571 C178.84848551 173.50321054 178.8464117 177.5405744 178.83342934 181.57819557 C178.83107834 183.05229788 178.83374472 184.52641895 178.84205246 186.00049973 C178.90001951 197.09374512 177.74738673 206.41626934 172.45751953 216.2746582 C172.33376953 216.9552832 172.21001953 217.6359082 172.08251953 218.3371582 C171.08810743 221.41983573 168.78664655 223.14946396 166.45751953 225.2746582 C165.75369141 225.97075195 165.04986328 226.6668457 164.32470703 227.3840332 C151.03408253 240.11910105 137.49893156 242.56942235 119.74829102 242.59350586 C118.17062371 242.60281722 116.59296128 242.61298767 115.01530457 242.62394714 C110.75565308 242.65112514 106.49603444 242.66636016 102.2363193 242.67937517 C97.77600279 242.69505939 93.31575281 242.72183262 88.85548401 242.74740601 C80.41972546 242.79410043 71.98395427 242.8308896 63.54813296 242.86407888 C53.93984332 242.90236641 44.33162067 242.95175912 34.7233876 243.00206304 C14.96814778 243.10524395 -4.7871345 243.19454917 -24.54248047 243.2746582 C-24.54248047 242.6146582 -24.54248047 241.9546582 -24.54248047 241.2746582 C-26.58347982 240.4812727 -28.62531137 239.6900279 -30.66748047 238.8996582 C-32.37291016 238.23836914 -32.37291016 238.23836914 -34.11279297 237.5637207 C-37.48884917 236.23639646 -37.48884917 236.23639646 -40.84716797 235.3605957 C-43.54248047 234.2746582 -43.54248047 234.2746582 -44.66748047 232.4152832 C-44.95623047 231.70887695 -45.24498047 231.0024707 -45.54248047 230.2746582 C-46.82431528 228.81123013 -48.16178257 227.39520391 -49.54248047 226.0246582 C-50.24373047 225.31825195 -50.94498047 224.6118457 -51.66748047 223.8840332 C-53.38358814 222.05755421 -53.38358814 222.05755421 -55.54248047 222.2746582 C-55.66623047 221.2846582 -55.66623047 221.2846582 -55.79248047 220.2746582 C-56.45396504 217.093998 -56.45396504 217.093998 -58.41748047 213.8371582 C-63.71299543 203.53801539 -63.98351246 191.74615673 -63.93066406 180.41333008 C-63.93474251 178.98571881 -63.94009144 177.55811071 -63.94659424 176.13050842 C-63.96012262 172.29779438 -63.95503001 168.46532605 -63.94545698 164.63260841 C-63.93778437 160.59397413 -63.94492685 156.55535887 -63.94961548 152.51672363 C-63.95505114 145.73856893 -63.94793929 138.96051275 -63.93359375 132.18237305 C-63.91727145 124.3808558 -63.92256152 116.57957389 -63.93907297 108.77806234 C-63.95275063 102.04214024 -63.954577 95.30628837 -63.94675696 88.57035685 C-63.94211475 84.56378741 -63.94135918 80.55732806 -63.95136642 76.55076599 C-63.96012601 72.78142389 -63.95385304 69.01238089 -63.93668365 65.2430706 C-63.9309193 63.22532928 -63.93965689 61.20756221 -63.94906616 59.18983459 C-63.85974023 46.13968804 -61.39583654 33.98137035 -55.54248047 22.2746582 C-55.27435547 21.6146582 -55.00623047 20.9546582 -54.72998047 20.2746582 C-53.54248047 18.2746582 -53.54248047 18.2746582 -51.72998047 17.3996582 C-48.51466431 15.74606703 -46.80073475 13.05404809 -44.54248047 10.2746582 C-41.54248047 8.2746582 -41.54248047 8.2746582 -38.54248047 7.2746582 C-37.71876953 6.90469727 -36.89505859 6.53473633 -36.04638672 6.15356445 C-35.07572266 5.71915039 -34.10505859 5.28473633 -33.10498047 4.8371582 C-32.15751953 4.40532227 -31.21005859 3.97348633 -30.23388672 3.52856445 C-20.38228306 0.1821467 -10.31166127 -0.01964993 0 0 Z " fill="#413167" transform="translate(102.54248046875,38.725341796875)"/>
<path d="M0 0 C1.12784409 -0.00151062 1.12784409 -0.00151062 2.2784729 -0.00305176 C19.44334521 0.01246905 35.05817121 2.40838525 51.5 7.25 C51.5 7.91 51.5 8.57 51.5 9.25 C50.84 9.641875 50.18 10.03375 49.5 10.4375 C47.15140049 12.18921021 47.15140049 12.18921021 46.9375 15.625 C47.14232045 19.38256377 47.14232045 19.38256377 49.9375 21.5625 C53.26904426 25.05655861 52.95123725 27.29172786 53.20703125 31.9375 C53.34590327 34.44225209 53.34590327 34.44225209 55.25 36.8125 C57.70917909 38.38364219 59.6137394 38.92930438 62.5 39.25 C62.83 41.56 63.16 43.87 63.5 46.25 C66.8 46.91 70.1 47.57 73.5 48.25 C74.08523841 59.07691052 74.08523841 59.07691052 69.5 64.25 C54.7453109 79.11675003 29.73188802 82.29044224 9.70703125 82.48828125 C8.88684006 82.4980751 8.06664886 82.50786896 7.22160339 82.51795959 C-27.34295855 82.84609577 -27.34295855 82.84609577 -42.5 78.25 C-43.23524902 78.03037598 -43.97049805 77.81075195 -44.72802734 77.58447266 C-55.75500497 74.15929803 -66.61011382 69.73142776 -72.5 59.25 C-72.91888427 56.32197181 -73.13161689 53.77573135 -73.13671875 50.8515625 C-73.14766068 50.05777191 -73.1586026 49.26398132 -73.1698761 48.44613647 C-73.18567912 46.77372702 -73.19095553 45.10118852 -73.1862793 43.42871094 C-73.1874939 40.88775742 -73.24729122 38.35257147 -73.31054688 35.8125 C-73.46136959 22.25049473 -73.46136959 22.25049473 -69.37109375 17.3203125 C-51.08231349 1.10226646 -23.12887436 0.02158107 0 0 Z " fill="#F09747" transform="translate(160.5,76.75)"/>
<path d="M0 0 C1.77402281 1.75877333 3.49408346 3.53643348 5.1875 5.375 C13.27181077 12.92035672 22.7975841 16.17708375 33.375 18.625 C34.26960938 18.8415625 35.16421875 19.058125 36.0859375 19.28125 C47.67575766 22.01024835 59.01619489 22.24134801 70.875 22.25 C71.70358521 22.25067474 72.53217041 22.25134949 73.38586426 22.25204468 C85.48039299 22.23638122 97.20717191 21.94607013 109 19 C109.73009277 18.82307617 110.46018555 18.64615234 111.21240234 18.46386719 C129.42895391 13.99376859 129.42895391 13.99376859 143 2 C143.33 1.34 143.66 0.68 144 0 C144.66 0 145.32 0 146 0 C146.09935088 4.30495015 146.17169268 8.60928183 146.21972656 12.91503906 C146.23976332 14.37772252 146.26700104 15.84032666 146.30175781 17.30273438 C146.35063225 19.4129601 146.37304659 21.52212136 146.390625 23.6328125 C146.41157227 24.90012207 146.43251953 26.16743164 146.45410156 27.47314453 C145.71222679 33.23503857 142.47046898 37.19046037 137.9375 40.71484375 C112.07357807 57.87055003 70.4127306 59.17292822 40.49902344 53.26782227 C38.66099975 52.86759283 36.83007077 52.43515016 35 52 C34.02546875 51.80664062 33.0509375 51.61328125 32.046875 51.4140625 C21.79276282 49.10538812 7.83781742 43.45285368 1.38012695 34.83935547 C-0.38469098 31.2085696 -0.34111552 28.53999847 -0.29296875 24.51171875 C-0.28872391 23.80852005 -0.28447906 23.10532135 -0.28010559 22.3808136 C-0.2634006 20.14930869 -0.22576614 17.91872887 -0.1875 15.6875 C-0.17244248 14.1686329 -0.15875594 12.64975154 -0.14648438 11.13085938 C-0.11352473 7.42027566 -0.06180016 3.71022822 0 0 Z " fill="#E9853F" transform="translate(88,185)"/>
<path d="M0 0 C1.37562854 1.28965176 2.70766393 2.62689293 4 4 C4 4.66 4 5.32 4 6 C4.56332031 6.27199219 5.12664062 6.54398438 5.70703125 6.82421875 C7.2330332 7.6067172 8.7323692 8.44358419 10.19921875 9.33203125 C39.15347269 26.55913053 80.32291466 25.45738382 112 18 C129.3338846 13.7070004 129.3338846 13.7070004 142.5 2.625 C143.2425 1.325625 143.2425 1.325625 144 0 C144.66 0 145.32 0 146 0 C146.12461569 4.12573806 146.21480904 8.25073131 146.2746582 12.37792969 C146.29963412 13.77851469 146.33362817 15.17897161 146.37719727 16.57910156 C146.80926953 30.83240321 146.80926953 30.83240321 142.42407227 36.52734375 C136.43789724 42.71774453 128.05848621 46.30540414 120 49 C119.23042969 49.26425781 118.46085937 49.52851563 117.66796875 49.80078125 C84.14125523 60.09638619 41.2559773 58.63079972 9.9296875 42.13671875 C2.38511179 36.6342082 2.38511179 36.6342082 0 32 C-0.84199038 26.46591443 -0.66457799 21.07718241 -0.4375 15.5 C-0.40233479 13.99486439 -0.37040494 12.48964952 -0.34179688 10.984375 C-0.26519428 7.32125194 -0.14470277 3.66113905 0 0 Z " fill="#E9843F" transform="translate(88,145)"/>
<path d="M0 0 C1.77654976 1.68772228 3.18357355 3.27168885 4.5625 5.3125 C10.23997234 11.57227719 17.72439897 14.49267654 25.5625 17.1875 C26.23877441 17.42525146 26.91504883 17.66300293 27.61181641 17.90795898 C41.34152546 22.37864268 55.15461277 23.47693223 69.4934082 23.33618164 C72.06428354 23.31248356 74.63412001 23.31566653 77.20507812 23.32226562 C91.17132486 23.30038294 104.90494696 22.5025669 118.3125 18.25 C119.57839966 17.85748047 119.57839966 17.85748047 120.86987305 17.45703125 C130.60517721 14.32344215 138.51275242 9.98809774 146 3 C145.96636423 4.37600868 145.89638262 5.75113867 145.8125 7.125 C145.77769531 7.89070312 145.74289063 8.65640625 145.70703125 9.4453125 C144.32469361 14.44005733 141.1204394 17.28416372 136.90625 19.9765625 C102.70172313 36.52967069 59.85670979 38.13193088 23.79296875 26.38671875 C14.76113036 23.22365076 7.35587087 19.0338063 2 11 C2 10.01 2 9.02 2 8 C1.34 7.67 0.68 7.34 0 7 C0 4.69 0 2.38 0 0 Z " fill="#1C1C6C" transform="translate(87,135)"/>
<path d="M0 0 C0.515625 0.70125 1.03125 1.4025 1.5625 2.125 C10.03676953 12.12029227 20.98290117 16.40874713 33.375 19.75 C34.10428711 19.94859619 34.83357422 20.14719238 35.58496094 20.35180664 C47.92709692 23.47749943 60.43302255 24.36644332 73.125 24.3125 C73.79132446 24.31134186 74.45764893 24.31018372 75.14416504 24.30899048 C97.32630794 24.23330494 121.76569069 21.89397878 140.0625 8.13671875 C142 7 142 7 146 7 C145.01501875 12.47211803 143.50406617 15.19840215 139.0859375 18.59765625 C130.2140536 24.56208756 120.2831001 27.47004868 110 30 C109.3301709 30.16806152 108.6603418 30.33612305 107.97021484 30.50927734 C76.07655783 38.06200839 36.53187096 35.16106912 8.05859375 18.890625 C3.0503728 15.42629171 1.43138425 9.64975782 0 4 C0 2.68 0 1.36 0 0 Z " fill="#1A1A6C" transform="translate(87,175)"/>
<path d="M0 0 C51.15 0 102.3 0 155 0 C155 0.33 155 0.66 155 1 C103.85 1 52.7 1 0 1 C0 0.67 0 0.34 0 0 Z " fill="#7D7997" transform="translate(83,282)"/>
<path d="M0 0 C0.33 0 0.66 0 1 0 C1 51.15 1 102.3 1 155 C0.67 155 0.34 155 0 155 C0 103.85 0 52.7 0 0 Z " fill="#0B0B0B" transform="translate(282,83)"/>
<path d="M0 0 C0.33 0 0.66 0 1 0 C1 48.51 1 97.02 1 147 C0.67 147 0.34 147 0 147 C0 98.49 0 49.98 0 0 Z " fill="#000000" transform="translate(37,87)"/>
<path d="M0 0 C48.18 0 96.36 0 146 0 C146 0.33 146 0.66 146 1 C97.82 1 49.64 1 0 1 C0 0.67 0 0.34 0 0 Z " fill="#010000" transform="translate(88,37)"/>
<path d="M0 0 C0.60094482 0.03029297 1.20188965 0.06058594 1.82104492 0.09179688 C28.53331587 1.36696266 55.26511217 1.09901395 82 1 C82 1.33 82 1.66 82 2 C54.99328232 2.85089038 28.01944507 3.13247823 1 3 C0.67 2.01 0.34 1.02 0 0 Z " fill="#161B76" transform="translate(82,277)"/>
<path d="M0 0 C2.2477975 2.05233685 3.0022242 3.00667261 4 6 C3.01 6.495 3.01 6.495 2 7 C2.08107802 10.89667247 2.19390612 14.79180304 2.3125 18.6875 C2.33505859 19.79029297 2.35761719 20.89308594 2.38085938 22.02929688 C2.41630859 23.09599609 2.45175781 24.16269531 2.48828125 25.26171875 C2.51446533 26.24100342 2.54064941 27.22028809 2.56762695 28.22924805 C3.0671461 31.43028856 4.2006502 33.33302008 6 36 C6.68096422 37.32608822 7.35330586 38.65686601 8 40 C3.74384943 38.47994622 2.15202308 35.87062938 0 32 C-0.45410156 28.38134766 -0.45410156 28.38134766 -0.390625 24.4140625 C-0.38496521 23.71227875 -0.37930542 23.010495 -0.37347412 22.28744507 C-0.35124483 20.06590913 -0.30108056 17.84604077 -0.25 15.625 C-0.22991731 14.11070053 -0.21166964 12.59637554 -0.1953125 11.08203125 C-0.15142633 7.38748732 -0.08249577 3.69390667 0 0 Z " fill="#D35F40" transform="translate(88,185)"/>
<path d="M0 0 C0.66 0 1.32 0 2 0 C2 9.9 2 19.8 2 30 C1.34 30.33 0.68 30.66 0 31 C-0.33 22.75 -0.66 14.5 -1 6 C-2.65 7.32 -4.3 8.64 -6 10 C-6.66 9.67 -7.32 9.34 -8 9 C-6.576875 7.88625 -6.576875 7.88625 -5.125 6.75 C-2.67467599 4.72154781 -1.12674637 3.0422152 0 0 Z " fill="#CC8A50" transform="translate(232,145)"/>
<path d="M0 0 C4 4 4 4 4 6 C4.99 6.33 5.98 6.66 7 7 C6.01 7.495 6.01 7.495 5 8 C4.01 7.67 3.02 7.34 2 7 C2 15.58 2 24.16 2 33 C1.34 32.67 0.68 32.34 0 32 C0 21.44 0 10.88 0 0 Z " fill="#D45F40" transform="translate(88,145)"/>
<path d="M0 0 C0.33 0 0.66 0 1 0 C0.99887207 0.89195068 0.99774414 1.78390137 0.99658203 2.70288086 C1.00658299 6.05298552 1.04339388 9.40067318 1.09765625 12.75024414 C1.11568281 14.19220819 1.12340922 15.63434305 1.12011719 17.07641602 C1.10769091 26.03886661 1.52056662 33.13989991 8 40 C10.66254977 42.48735914 10.66254977 42.48735914 13 44 C9.28115772 44 8.63852271 43.1259934 5.9375 40.6875 C5.24527344 40.07261719 4.55304688 39.45773438 3.83984375 38.82421875 C-0.71702447 34.30605005 -0.73706858 30.10778425 -1 24 C-0.97379184 19.78384598 -0.78501515 15.58488429 -0.5625 11.375 C-0.51029297 10.27542969 -0.45808594 9.17585937 -0.40429688 8.04296875 C-0.27605696 5.36158878 -0.14117502 2.68072469 0 0 Z " fill="#0C1972" transform="translate(86,184)"/>
<path d="M0 0 C1.32 1.65 2.64 3.3 4 5 C3.34 5 2.68 5 2 5 C1.9708456 8.39581516 1.95314932 11.79159786 1.9375 15.1875 C1.92912109 16.14720703 1.92074219 17.10691406 1.91210938 18.09570312 C1.90888672 19.02705078 1.90566406 19.95839844 1.90234375 20.91796875 C1.89710693 21.77156982 1.89187012 22.6251709 1.88647461 23.50463867 C2.00420677 26.09246747 2.42892956 28.47661953 3 31 C2.34 31.33 1.68 31.66 1 32 C-0.46098845 29.0780231 -0.11134901 26.50106525 -0.09765625 23.2421875 C-0.0962413 22.57913605 -0.09482635 21.91608459 -0.09336853 21.23294067 C-0.08776754 19.11358137 -0.075215 16.99432741 -0.0625 14.875 C-0.05748512 13.43880361 -0.05292219 12.00260556 -0.04882812 10.56640625 C-0.03779782 7.04423655 -0.02053259 3.52212855 0 0 Z " fill="#DB603C" transform="translate(88,106)"/>
<path d="M0 0 C3 3 3 3 4 6 C3.01 6.495 3.01 6.495 2 7 C1.67 13.27 1.34 19.54 1 26 C0.67 26 0.34 26 0 26 C0 17.42 0 8.84 0 0 Z " fill="#CC6148" transform="translate(88,185)"/>
<path d="M0 0 C2.10716111 2.00363007 3.76926556 4.0181216 5.375 6.4375 C7.54776213 9.55465418 9.88823385 11.77730989 13 14 C9.28115772 14 8.63852271 13.1259934 5.9375 10.6875 C5.24527344 10.07261719 4.55304688 9.45773438 3.83984375 8.82421875 C2 7 2 7 0 4 C0 2.68 0 1.36 0 0 Z " fill="#1A166E" transform="translate(86,214)"/>
<path d="M0 0 C0 0.66 0 1.32 0 2 C-0.55429688 2.20496094 -1.10859375 2.40992188 -1.6796875 2.62109375 C-2.40414062 2.89050781 -3.12859375 3.15992188 -3.875 3.4375 C-4.59429687 3.70433594 -5.31359375 3.97117188 -6.0546875 4.24609375 C-8.03648845 4.97916854 -8.03648845 4.97916854 -10 6 C-11.54023996 6.06950541 -13.08334988 6.08452357 -14.625 6.0625 C-15.85089844 6.04896484 -15.85089844 6.04896484 -17.1015625 6.03515625 C-18.04128906 6.01775391 -18.04128906 6.01775391 -19 6 C-15.58592908 4.13319275 -12.09138697 3.00753328 -8.375 1.875 C-7.22773438 1.52179688 -6.08046875 1.16859375 -4.8984375 0.8046875 C-2 0 -2 0 0 0 Z " fill="#B77E54" transform="translate(216,199)"/>
<path d="M0 0 C0 3 0 3 -2.25 5.5625 C-6.28540472 9.139336 -8.58618261 10.30076763 -14 10 C-12.27312855 8.84875237 -10.5439837 7.70086631 -8.80859375 6.5625 C-8.02613281 6.046875 -7.24367187 5.53125 -6.4375 5 C-5.65246094 4.484375 -4.86742187 3.96875 -4.05859375 3.4375 C-1.90940344 2.02601334 -1.90940344 2.02601334 0 0 Z " fill="#D6954E" transform="translate(230,189)"/>
<path d="M0 0 C5.94 1.485 5.94 1.485 12 3 C12 3.66 12 4.32 12 5 C9.5 6.625 9.5 6.625 7 8 C7 6.68 7 5.36 7 4 C4.69 3.34 2.38 2.68 0 2 C0 1.34 0 0.68 0 0 Z " fill="#E2A256" transform="translate(200,81)"/>
<path d="M0 0 C0 3.3 0 6.6 0 10 C-0.66 10 -1.32 10 -2 10 C-2 7.36 -2 4.72 -2 2 C-3.32 1.67 -4.64 1.34 -6 1 C-3.92446352 0.4465236 -2.15634036 0 0 0 Z " fill="#D28F4C" transform="translate(234,125)"/>
<path d="M0 0 C0.66 0.66 1.32 1.32 2 2 C1.34 2 0.68 2 0 2 C-0.33 4.64 -0.66 7.28 -1 10 C-1.66 10 -2.32 10 -3 10 C-3.36923077 3.47692308 -3.36923077 3.47692308 -1.5 1.0625 C-1.005 0.711875 -0.51 0.36125 0 0 Z " fill="#623D52" transform="translate(210,86)"/>
<path d="M0 0 C0.33 0 0.66 0 1 0 C1 2.31 1 4.62 1 7 C0.67 7 0.34 7 0 7 C0 4.69 0 2.38 0 0 Z " fill="#000024" transform="translate(38,80)"/>
<path d="M0 0 C2.31 0 4.62 0 7 0 C7 0.33 7 0.66 7 1 C4.69 1 2.38 1 0 1 C0 0.67 0 0.34 0 0 Z " fill="#000024" transform="translate(81,38)"/>
<path d="M0 0 C0.33 0 0.66 0 1 0 C1 1.98 1 3.96 1 6 C0.67 6 0.34 6 0 6 C0 4.02 0 2.04 0 0 Z " fill="#000000" transform="translate(38,234)"/>
<path d="M0 0 C1.98 0 3.96 0 6 0 C6 0.33 6 0.66 6 1 C4.02 1 2.04 1 0 1 C0 0.67 0 0.34 0 0 Z " fill="#550000" transform="translate(234,38)"/>
<path d="M0 0 C1.65 0 3.3 0 5 0 C5 0.33 5 0.66 5 1 C3.35 1 1.7 1 0 1 C0 0.67 0 0.34 0 0 Z " fill="#999999" transform="translate(242,280)"/>
<path d="M0 0 C0.33 0 0.66 0 1 0 C1 1.65 1 3.3 1 5 C0.67 5 0.34 5 0 5 C0 3.35 0 1.7 0 0 Z " fill="#66667F" transform="translate(281,238)"/>
<path d="M0 0 C0.33 0 0.66 0 1 0 C1 1.65 1 3.3 1 5 C0.67 5 0.34 5 0 5 C0 3.35 0 1.7 0 0 Z " fill="#000000" transform="translate(39,240)"/>
<path d="M0 0 C1.65 0 3.3 0 5 0 C5 0.33 5 0.66 5 1 C3.35 1 1.7 1 0 1 C0 0.67 0 0.34 0 0 Z " fill="#000000" transform="translate(240,39)"/>
<path d="M0 0 C1.65 0 3.3 0 5 0 C5 0.33 5 0.66 5 1 C3.35 1 1.7 1 0 1 C0 0.67 0 0.34 0 0 Z " fill="#000033" transform="translate(76,39)"/>
<path d="M0 0 C4 1 4 1 4 1 Z " fill="#5F5F7F" transform="translate(238,281)"/>
<path d="M0 0 C4 1 4 1 4 1 Z " fill="#3F3F3F" transform="translate(74,280)"/>
<path d="M0 0 C1 4 1 4 1 4 Z " fill="#7F7F7F" transform="translate(280,243)"/>
<path d="M0 0 C1 4 1 4 1 4 Z " fill="#402020" transform="translate(281,78)"/>
<path d="M0 0 C1 4 1 4 1 4 Z " fill="#7F7F7F" transform="translate(280,74)"/>
<path d="M0 0 C1 4 1 4 1 4 Z " fill="#000000" transform="translate(39,76)"/>
<path d="M0 0 C3 1 3 1 3 1 Z " fill="#555555" transform="translate(69,278)"/>
<path d="" fill="#000000" transform="translate(0,0)"/>
<path d="" fill="#000000" transform="translate(0,0)"/>
<path d="" fill="#000000" transform="translate(0,0)"/>
<path d="" fill="#7F5555" transform="translate(0,0)"/>
<path d="" fill="#000000" transform="translate(0,0)"/>
<path d="M0 0 C3 1 3 1 3 1 Z " fill="#000000" transform="translate(250,42)"/>
<path d="M0 0 C3 1 3 1 3 1 Z " fill="#000000" transform="translate(70,41)"/>
<path d="M0 0 C3 1 3 1 3 1 Z " fill="#000000" transform="translate(73,40)"/>
<path d="M0 0 C2 1 2 1 2 1 Z " fill="#BFBFBF" transform="translate(247,279)"/>
<path d="M0 0 C2 1 2 1 2 1 Z " fill="#000000" transform="translate(72,279)"/>
<path d="M0 0 C2 1 2 1 2 1 Z " fill="#7F7F7F" transform="translate(249,278)"/>
<path d="M0 0 C2 1 2 1 2 1 Z " fill="#7F7F7F" transform="translate(251,277)"/>
<path d="M0 0 C2 1 2 1 2 1 Z " fill="#000000" transform="translate(67,277)"/>
<path d="M0 0 C2 1 2 1 2 1 Z " fill="#404040" transform="translate(253,276)"/>
<path d="M0 0 C2 1 2 1 2 1 Z " fill="#00007F" transform="translate(65,276)"/>
<path d="M0 0 C2 1 2 1 2 1 Z " fill="#7F7F7F" transform="translate(255,275)"/>
<path d="M0 0 C2 1 2 1 2 1 Z " fill="#7F7F7F" transform="translate(63,275)"/>
<path d="M0 0 C2 1 2 1 2 1 Z " fill="#7F7F7F" transform="translate(257,274)"/>
<path d="M0 0 C2 1 2 1 2 1 Z " fill="#7F7F7F" transform="translate(261,271)"/>
<path d="" fill="#7F7F7F" transform="translate(0,0)"/>
<path d="" fill="#000000" transform="translate(0,0)"/>
<path d="" fill="#7F7F7F" transform="translate(0,0)"/>
<path d="" fill="#404040" transform="translate(0,0)"/>
<path d="" fill="#000000" transform="translate(0,0)"/>
<path d="" fill="#7F7F7F" transform="translate(0,0)"/>
<path d="" fill="#000000" transform="translate(0,0)"/>
<path d="" fill="#7F7F7F" transform="translate(0,0)"/>
<path d="" fill="#7F7F7F" transform="translate(0,0)"/>
<path d="" fill="#7F7F7F" transform="translate(0,0)"/>
<path d="" fill="#000000" transform="translate(0,0)"/>
<path d="" fill="#7F7F7F" transform="translate(0,0)"/>
<path d="" fill="#000000" transform="translate(0,0)"/>
<path d="" fill="#7F7F7F" transform="translate(0,0)"/>
<path d="" fill="#000000" transform="translate(0,0)"/>
<path d="" fill="#7F7F7F" transform="translate(0,0)"/>
<path d="" fill="#000000" transform="translate(0,0)"/>
<path d="M0 0 C2 1 2 1 2 1 Z " fill="#000000" transform="translate(265,52)"/>
<path d="M0 0 C2 1 2 1 2 1 Z " fill="#7F7F00" transform="translate(255,44)"/>
<path d="M0 0 C2 1 2 1 2 1 Z " fill="#000000" transform="translate(64,44)"/>
<path d="M0 0 C2 1 2 1 2 1 Z " fill="#000000" transform="translate(253,43)"/>
<path d="M0 0 C2 1 2 1 2 1 Z " fill="#000000" transform="translate(66,43)"/>
<path d="M0 0 C2 1 2 1 2 1 Z " fill="#000000" transform="translate(68,42)"/>
<path d="M0 0 C2 1 2 1 2 1 Z " fill="#000000" transform="translate(248,41)"/>
<path d="M0 0 C2 1 2 1 2 1 Z " fill="#000000" transform="translate(245,40)"/>
<path d="" fill="#000000" transform="translate(0,0)"/>
<path d="" fill="#FFFFFF" transform="translate(0,0)"/>
<path d="" fill="#000000" transform="translate(0,0)"/>
<path d="" fill="#000000" transform="translate(0,0)"/>
<path d="" fill="#FFFFFF" transform="translate(0,0)"/>
<path d="" fill="#000000" transform="translate(0,0)"/>
<path d="" fill="#FFFFFF" transform="translate(0,0)"/>
<path d="" fill="#000000" transform="translate(0,0)"/>
<path d="" fill="#808080" transform="translate(0,0)"/>
<path d="" fill="#000000" transform="translate(0,0)"/>
<path d="" fill="#808080" transform="translate(0,0)"/>
<path d="" fill="#000000" transform="translate(0,0)"/>
<path d="" fill="#808080" transform="translate(0,0)"/>
<path d="" fill="#000000" transform="translate(0,0)"/>
<path d="" fill="#808080" transform="translate(0,0)"/>
<path d="" fill="#000000" transform="translate(0,0)"/>
<path d="" fill="#FFFFFF" transform="translate(0,0)"/>
<path d="" fill="#000000" transform="translate(0,0)"/>
<path d="" fill="#FFFFFF" transform="translate(0,0)"/>
<path d="" fill="#000000" transform="translate(0,0)"/>
<path d="" fill="#000000" transform="translate(0,0)"/>
<path d="" fill="#000000" transform="translate(0,0)"/>
<path d="" fill="#000000" transform="translate(0,0)"/>
<path d="" fill="#FFFFFF" transform="translate(0,0)"/>
<path d="" fill="#000000" transform="translate(0,0)"/>
<path d="" fill="#000000" transform="translate(0,0)"/>
<path d="" fill="#000000" transform="translate(0,0)"/>
<path d="" fill="#000000" transform="translate(0,0)"/>
<path d="" fill="#000000" transform="translate(0,0)"/>
<path d="" fill="#000000" transform="translate(0,0)"/>
<path d="" fill="#000000" transform="translate(0,0)"/>
<path d="" fill="#000000" transform="translate(0,0)"/>
<path d="" fill="#000000" transform="translate(0,0)"/>
<path d="" fill="#000000" transform="translate(0,0)"/>
<path d="" fill="#000000" transform="translate(0,0)"/>
<path d="" fill="#000000" transform="translate(0,0)"/>
<path d="" fill="#000000" transform="translate(0,0)"/>
<path d="" fill="#000000" transform="translate(0,0)"/>
<path d="" fill="#000000" transform="translate(0,0)"/>
<path d="" fill="#000000" transform="translate(0,0)"/>
<path d="" fill="#000000" transform="translate(0,0)"/>
<path d="" fill="#000000" transform="translate(0,0)"/>
<path d="" fill="#000000" transform="translate(0,0)"/>
<path d="" fill="#000000" transform="translate(0,0)"/>
<path d="" fill="#000000" transform="translate(0,0)"/>
<path d="" fill="#000000" transform="translate(0,0)"/>
<path d="" fill="#000000" transform="translate(0,0)"/>
</svg>
